<svg width="1440" height="74" viewBox="0 0 1440 74" fill="none" xmlns="http://www.w3.org/2000/svg">
<rect width="1440" height="74" fill="#34C94B"/>
<path d="M46.032 50C45.104 50 44.264 49.808 43.512 49.424C42.776 49.024 42.144 48.456 41.616 47.72C41.088 46.968 40.68 46.064 40.392 45.008C40.12 43.936 39.984 42.728 39.984 41.384C39.984 40.072 40.128 38.872 40.416 37.784C40.704 36.696 41.112 35.768 41.64 35C42.184 34.232 42.832 33.64 43.584 33.224C44.352 32.792 45.2 32.576 46.128 32.576C47.056 32.576 47.896 32.792 48.648 33.224C49.4 33.64 50.04 34.232 50.568 35C51.096 35.768 51.504 36.688 51.792 37.76C52.08 38.816 52.224 39.984 52.224 41.264C52.224 41.936 52.16 42.6 52.032 43.256C51.92 43.912 51.752 44.52 51.528 45.08C51.32 45.64 51.072 46.128 50.784 46.544C50.512 46.96 50.224 47.272 49.92 47.48V47.576L52.944 47.528V50H46.032ZM49.272 41.384C49.272 40.536 49.2 39.744 49.056 39.008C48.928 38.272 48.728 37.64 48.456 37.112C48.184 36.568 47.848 36.144 47.448 35.84C47.064 35.52 46.624 35.36 46.128 35.36C45.616 35.36 45.16 35.52 44.76 35.84C44.376 36.144 44.048 36.568 43.776 37.112C43.504 37.64 43.296 38.272 43.152 39.008C43.024 39.744 42.96 40.536 42.96 41.384C42.96 42.232 43.032 43.024 43.176 43.76C43.32 44.496 43.528 45.136 43.8 45.68C44.072 46.208 44.4 46.632 44.784 46.952C45.184 47.256 45.64 47.408 46.152 47.408C46.664 47.408 47.112 47.248 47.496 46.928C47.896 46.592 48.224 46.152 48.48 45.608C48.752 45.048 48.952 44.408 49.08 43.688C49.208 42.952 49.272 42.184 49.272 41.384ZM70.0868 39.848V46.136C70.0868 46.808 70.1828 47.296 70.3748 47.6C70.5828 47.904 70.8948 48.056 71.3108 48.056C71.4548 48.056 71.5988 48.04 71.7428 48.008C71.9028 47.976 72.0388 47.928 72.1508 47.864L72.1988 49.976C72.0068 50.072 71.7508 50.152 71.4308 50.216C71.1108 50.28 70.7908 50.312 70.4708 50.312C69.4308 50.312 68.6788 50.008 68.2148 49.4C67.7668 48.776 67.5428 47.888 67.5428 46.736V39.848H66.0068V37.76H67.5428V34.64H70.0868V37.76H72.2228V39.848H70.0868ZM78.0991 34.208C78.0991 34.688 77.9471 35.088 77.6431 35.408C77.3391 35.728 76.9631 35.888 76.5151 35.888C76.0511 35.888 75.6671 35.728 75.3631 35.408C75.0751 35.088 74.9311 34.688 74.9311 34.208C74.9311 33.744 75.0751 33.344 75.3631 33.008C75.6671 32.672 76.0511 32.504 76.5151 32.504C76.9791 32.504 77.3551 32.672 77.6431 33.008C77.9471 33.344 78.0991 33.744 78.0991 34.208ZM75.1711 50V37.76H77.8591V50H75.1711ZM87.1402 33.752C86.9322 33.672 86.6922 33.632 86.4202 33.632C86.1162 33.632 85.8682 33.704 85.6762 33.848C85.4842 33.976 85.3322 34.152 85.2202 34.376C85.1082 34.6 85.0282 34.856 84.9802 35.144C84.9322 35.432 84.9082 35.728 84.9082 36.032V37.76H86.8762V39.92H84.9322V50H82.2922V39.92H80.7562V37.76H82.2922V35.984C82.2922 35.344 82.3562 34.744 82.4842 34.184C82.6282 33.608 82.8442 33.112 83.1322 32.696C83.4362 32.28 83.8282 31.952 84.3082 31.712C84.7882 31.472 85.3642 31.352 86.0362 31.352C86.2282 31.352 86.4442 31.368 86.6842 31.4C86.9242 31.432 87.1322 31.48 87.3082 31.544L87.1402 33.752ZM94.2735 51.68C94.1135 52.288 93.9215 52.84 93.6975 53.336C93.4895 53.848 93.2255 54.28 92.9055 54.632C92.5855 55 92.2015 55.28 91.7535 55.472C91.3215 55.664 90.8095 55.76 90.2175 55.76C89.8975 55.76 89.5855 55.736 89.2815 55.688C88.9935 55.656 88.7535 55.608 88.5615 55.544L88.8975 53.096C89.0255 53.144 89.1775 53.184 89.3535 53.216C89.5455 53.264 89.7295 53.288 89.9055 53.288C90.3375 53.288 90.6655 53.152 90.8895 52.88C91.1135 52.624 91.2815 52.264 91.3935 51.8L91.7535 50.288L88.1775 37.76H91.0335L93.1695 46.976H93.2415L95.1855 37.76H97.9455L94.2735 51.68Z" fill="white"/>
<path d="M46 22.875C40.1484 22.875 35.3906 27.25 34.6797 32.8281C35.2266 32.6641 35.7734 32.5 36.375 32.5C37.7969 32.5 39 33.7031 39 35.125V42.125C39 43.6016 37.7969 44.75 36.375 44.75C33.9141 44.75 32 42.8359 32 40.375V39.5V36.875V34.25C32 26.5391 38.2344 20.25 46 20.25C53.7109 20.25 60 26.5391 60 34.25V36.875V39.5V40.375C60 42.8359 58.0312 44.75 55.625 44.75C54.1484 44.75 53 43.6016 53 42.125V35.125C53 33.7031 54.1484 32.5 55.625 32.5C56.1719 32.5 56.7734 32.6641 57.2656 32.8281C56.5547 27.25 51.7969 22.875 46 22.875Z" fill="#121212"/>
<rect x="436.5" y="13.5" width="567" height="47" rx="7.5" fill="white" stroke="#121212"/>
<path d="M938.5 13.5H996C1000.14 13.5 1003.5 16.8579 1003.5 21V53C1003.5 57.1421 1000.14 60.5 996 60.5H938.5V13.5Z" fill="white" stroke="#121212"/>
<path d="M463.328 33.328C463.28 33.408 463.227 33.4693 463.168 33.512C463.115 33.5493 463.048 33.568 462.968 33.568C462.877 33.568 462.771 33.5227 462.648 33.432C462.525 33.3413 462.371 33.2427 462.184 33.136C462.003 33.024 461.781 32.9227 461.52 32.832C461.264 32.7413 460.952 32.696 460.584 32.696C460.237 32.696 459.931 32.744 459.664 32.84C459.403 32.9307 459.181 33.056 459 33.216C458.824 33.376 458.691 33.5653 458.6 33.784C458.509 33.9973 458.464 34.2293 458.464 34.48C458.464 34.8 458.541 35.0667 458.696 35.28C458.856 35.488 459.064 35.6667 459.32 35.816C459.581 35.9653 459.875 36.096 460.2 36.208C460.531 36.3147 460.867 36.4267 461.208 36.544C461.555 36.6613 461.891 36.7947 462.216 36.944C462.547 37.088 462.84 37.272 463.096 37.496C463.357 37.72 463.565 37.9947 463.72 38.32C463.88 38.6453 463.96 39.0453 463.96 39.52C463.96 40.0213 463.875 40.4933 463.704 40.936C463.533 41.3733 463.283 41.7547 462.952 42.08C462.627 42.4053 462.224 42.6613 461.744 42.848C461.269 43.0347 460.728 43.128 460.12 43.128C459.373 43.128 458.696 42.9947 458.088 42.728C457.48 42.456 456.96 42.0907 456.528 41.632L456.976 40.896C457.019 40.8373 457.069 40.7893 457.128 40.752C457.192 40.7093 457.261 40.688 457.336 40.688C457.405 40.688 457.483 40.7173 457.568 40.776C457.659 40.8293 457.76 40.8987 457.872 40.984C457.984 41.0693 458.112 41.1627 458.256 41.264C458.4 41.3653 458.563 41.4587 458.744 41.544C458.931 41.6293 459.141 41.7013 459.376 41.76C459.611 41.8133 459.875 41.84 460.168 41.84C460.536 41.84 460.864 41.7893 461.152 41.688C461.44 41.5867 461.683 41.4453 461.88 41.264C462.083 41.0773 462.237 40.856 462.344 40.6C462.451 40.344 462.504 40.0587 462.504 39.744C462.504 39.3973 462.424 39.1147 462.264 38.896C462.109 38.672 461.904 38.4853 461.648 38.336C461.392 38.1867 461.099 38.0613 460.768 37.96C460.437 37.8533 460.101 37.7467 459.76 37.64C459.419 37.528 459.083 37.4 458.752 37.256C458.421 37.112 458.128 36.9253 457.872 36.696C457.616 36.4667 457.408 36.1813 457.248 35.84C457.093 35.4933 457.016 35.0667 457.016 34.56C457.016 34.1547 457.093 33.7627 457.248 33.384C457.408 33.0053 457.637 32.6693 457.936 32.376C458.24 32.0827 458.611 31.848 459.048 31.672C459.491 31.496 459.997 31.408 460.568 31.408C461.208 31.408 461.789 31.5093 462.312 31.712C462.84 31.9147 463.304 32.208 463.704 32.592L463.328 33.328ZM471.393 38.064C471.393 37.7333 471.345 37.432 471.249 37.16C471.158 36.8827 471.022 36.6453 470.841 36.448C470.665 36.2453 470.449 36.0907 470.193 35.984C469.937 35.872 469.646 35.816 469.321 35.816C468.638 35.816 468.097 36.016 467.697 36.416C467.302 36.8107 467.057 37.36 466.961 38.064H471.393ZM472.545 41.864C472.369 42.0773 472.158 42.264 471.913 42.424C471.667 42.5787 471.403 42.7067 471.121 42.808C470.843 42.9093 470.555 42.984 470.257 43.032C469.958 43.0853 469.662 43.112 469.369 43.112C468.809 43.112 468.291 43.0187 467.817 42.832C467.347 42.64 466.939 42.3627 466.593 42C466.251 41.632 465.985 41.1787 465.793 40.64C465.601 40.1013 465.505 39.4827 465.505 38.784C465.505 38.2187 465.59 37.6907 465.761 37.2C465.937 36.7093 466.187 36.2853 466.513 35.928C466.838 35.5653 467.235 35.2827 467.705 35.08C468.174 34.872 468.702 34.768 469.289 34.768C469.774 34.768 470.222 34.8507 470.633 35.016C471.049 35.176 471.406 35.4107 471.705 35.72C472.009 36.024 472.246 36.4027 472.417 36.856C472.587 37.304 472.673 37.816 472.673 38.392C472.673 38.616 472.649 38.7653 472.601 38.84C472.553 38.9147 472.462 38.952 472.329 38.952H466.913C466.929 39.464 466.998 39.9093 467.121 40.288C467.249 40.6667 467.425 40.984 467.649 41.24C467.873 41.4907 468.139 41.68 468.449 41.808C468.758 41.9307 469.105 41.992 469.489 41.992C469.846 41.992 470.153 41.952 470.409 41.872C470.67 41.7867 470.894 41.696 471.081 41.6C471.267 41.504 471.422 41.416 471.545 41.336C471.673 41.2507 471.782 41.208 471.873 41.208C471.99 41.208 472.081 41.2533 472.145 41.344L472.545 41.864ZM479.014 39.352C478.358 39.3733 477.798 39.4267 477.334 39.512C476.875 39.592 476.499 39.6987 476.206 39.832C475.918 39.9653 475.707 40.1227 475.574 40.304C475.446 40.4853 475.382 40.688 475.382 40.912C475.382 41.1253 475.416 41.3093 475.486 41.464C475.555 41.6187 475.648 41.7467 475.766 41.848C475.888 41.944 476.03 42.016 476.19 42.064C476.355 42.1067 476.531 42.128 476.718 42.128C476.968 42.128 477.198 42.104 477.406 42.056C477.614 42.0027 477.808 41.928 477.99 41.832C478.176 41.736 478.352 41.6213 478.518 41.488C478.688 41.3547 478.854 41.2027 479.014 41.032V39.352ZM474.414 36.04C474.862 35.608 475.344 35.2853 475.862 35.072C476.379 34.8587 476.952 34.752 477.582 34.752C478.035 34.752 478.438 34.8267 478.79 34.976C479.142 35.1253 479.438 35.3333 479.678 35.6C479.918 35.8667 480.099 36.1893 480.222 36.568C480.344 36.9467 480.406 37.3627 480.406 37.816V43H479.774C479.635 43 479.528 42.9787 479.454 42.936C479.379 42.888 479.32 42.7973 479.278 42.664L479.118 41.896C478.904 42.0933 478.696 42.2693 478.494 42.424C478.291 42.5733 478.078 42.7013 477.854 42.808C477.63 42.9093 477.39 42.9867 477.134 43.04C476.883 43.0987 476.603 43.128 476.294 43.128C475.979 43.128 475.683 43.0853 475.406 43C475.128 42.9093 474.886 42.776 474.678 42.6C474.475 42.424 474.312 42.2027 474.19 41.936C474.072 41.664 474.014 41.344 474.014 40.976C474.014 40.656 474.102 40.3493 474.278 40.056C474.454 39.7573 474.739 39.4933 475.134 39.264C475.528 39.0347 476.043 38.848 476.678 38.704C477.312 38.5547 478.091 38.4693 479.014 38.448V37.816C479.014 37.1867 478.878 36.712 478.606 36.392C478.334 36.0667 477.936 35.904 477.414 35.904C477.062 35.904 476.766 35.9493 476.526 36.04C476.291 36.1253 476.086 36.224 475.91 36.336C475.739 36.4427 475.59 36.5413 475.462 36.632C475.339 36.7173 475.216 36.76 475.094 36.76C474.998 36.76 474.915 36.736 474.846 36.688C474.776 36.6347 474.718 36.5707 474.67 36.496L474.414 36.04ZM484.127 36.52C484.383 35.9653 484.698 35.5333 485.071 35.224C485.444 34.9093 485.9 34.752 486.439 34.752C486.61 34.752 486.772 34.7707 486.927 34.808C487.087 34.8453 487.228 34.904 487.351 34.984L487.247 36.048C487.215 36.1813 487.135 36.248 487.007 36.248C486.932 36.248 486.823 36.232 486.679 36.2C486.535 36.168 486.372 36.152 486.191 36.152C485.935 36.152 485.706 36.1893 485.503 36.264C485.306 36.3387 485.127 36.4507 484.967 36.6C484.812 36.744 484.671 36.9253 484.543 37.144C484.42 37.3573 484.308 37.6027 484.207 37.88V43H482.775V34.896H483.591C483.746 34.896 483.852 34.9253 483.911 34.984C483.97 35.0427 484.01 35.144 484.031 35.288L484.127 36.52ZM494.115 36.336C494.072 36.3947 494.03 36.44 493.987 36.472C493.944 36.504 493.886 36.52 493.811 36.52C493.731 36.52 493.643 36.488 493.547 36.424C493.451 36.3547 493.331 36.28 493.187 36.2C493.048 36.12 492.875 36.048 492.667 35.984C492.464 35.9147 492.214 35.88 491.915 35.88C491.515 35.88 491.163 35.952 490.859 36.096C490.555 36.2347 490.299 36.4373 490.091 36.704C489.888 36.9707 489.734 37.2933 489.627 37.672C489.526 38.0507 489.475 38.4747 489.475 38.944C489.475 39.4347 489.531 39.872 489.643 40.256C489.755 40.6347 489.912 40.9547 490.115 41.216C490.323 41.472 490.571 41.6693 490.859 41.808C491.152 41.9413 491.48 42.008 491.843 42.008C492.19 42.008 492.475 41.968 492.699 41.888C492.923 41.8027 493.107 41.7093 493.251 41.608C493.4 41.5067 493.523 41.416 493.619 41.336C493.72 41.2507 493.819 41.208 493.915 41.208C494.032 41.208 494.123 41.2533 494.187 41.344L494.587 41.864C494.411 42.0827 494.211 42.2693 493.987 42.424C493.763 42.5787 493.52 42.7093 493.259 42.816C493.003 42.9173 492.734 42.992 492.451 43.04C492.168 43.088 491.88 43.112 491.587 43.112C491.08 43.112 490.608 43.0187 490.171 42.832C489.739 42.6453 489.363 42.376 489.043 42.024C488.723 41.6667 488.472 41.2293 488.291 40.712C488.11 40.1947 488.019 39.6053 488.019 38.944C488.019 38.3413 488.102 37.784 488.267 37.272C488.438 36.76 488.683 36.32 489.003 35.952C489.328 35.5787 489.726 35.288 490.195 35.08C490.67 34.872 491.214 34.768 491.827 34.768C492.398 34.768 492.899 34.8613 493.331 35.048C493.768 35.2293 494.155 35.488 494.491 35.824L494.115 36.336ZM497.748 35.976C498.094 35.608 498.478 35.3147 498.9 35.096C499.321 34.8773 499.806 34.768 500.356 34.768C500.798 34.768 501.188 34.8427 501.524 34.992C501.865 35.136 502.148 35.344 502.372 35.616C502.601 35.8827 502.774 36.2053 502.892 36.584C503.009 36.9627 503.068 37.3813 503.068 37.84V43H501.636V37.84C501.636 37.2267 501.494 36.752 501.212 36.416C500.934 36.0747 500.51 35.904 499.94 35.904C499.518 35.904 499.124 36.0053 498.756 36.208C498.393 36.4107 498.057 36.6853 497.748 37.032V43H496.316V31.216H497.748V35.976ZM514.123 39.352C513.467 39.3733 512.907 39.4267 512.443 39.512C511.984 39.592 511.608 39.6987 511.315 39.832C511.027 39.9653 510.816 40.1227 510.683 40.304C510.555 40.4853 510.491 40.688 510.491 40.912C510.491 41.1253 510.526 41.3093 510.595 41.464C510.664 41.6187 510.758 41.7467 510.875 41.848C510.998 41.944 511.139 42.016 511.299 42.064C511.464 42.1067 511.64 42.128 511.827 42.128C512.078 42.128 512.307 42.104 512.515 42.056C512.723 42.0027 512.918 41.928 513.099 41.832C513.286 41.736 513.462 41.6213 513.627 41.488C513.798 41.3547 513.963 41.2027 514.123 41.032V39.352ZM509.523 36.04C509.971 35.608 510.454 35.2853 510.971 35.072C511.488 34.8587 512.062 34.752 512.691 34.752C513.144 34.752 513.547 34.8267 513.899 34.976C514.251 35.1253 514.547 35.3333 514.787 35.6C515.027 35.8667 515.208 36.1893 515.331 36.568C515.454 36.9467 515.515 37.3627 515.515 37.816V43H514.883C514.744 43 514.638 42.9787 514.563 42.936C514.488 42.888 514.43 42.7973 514.387 42.664L514.227 41.896C514.014 42.0933 513.806 42.2693 513.603 42.424C513.4 42.5733 513.187 42.7013 512.963 42.808C512.739 42.9093 512.499 42.9867 512.243 43.04C511.992 43.0987 511.712 43.128 511.403 43.128C511.088 43.128 510.792 43.0853 510.515 43C510.238 42.9093 509.995 42.776 509.787 42.6C509.584 42.424 509.422 42.2027 509.299 41.936C509.182 41.664 509.123 41.344 509.123 40.976C509.123 40.656 509.211 40.3493 509.387 40.056C509.563 39.7573 509.848 39.4933 510.243 39.264C510.638 39.0347 511.152 38.848 511.787 38.704C512.422 38.5547 513.2 38.4693 514.123 38.448V37.816C514.123 37.1867 513.987 36.712 513.715 36.392C513.443 36.0667 513.046 35.904 512.523 35.904C512.171 35.904 511.875 35.9493 511.635 36.04C511.4 36.1253 511.195 36.224 511.019 36.336C510.848 36.4427 510.699 36.5413 510.571 36.632C510.448 36.7173 510.326 36.76 510.203 36.76C510.107 36.76 510.024 36.736 509.955 36.688C509.886 36.6347 509.827 36.5707 509.779 36.496L509.523 36.04ZM526.57 39.352C525.914 39.3733 525.354 39.4267 524.89 39.512C524.431 39.592 524.055 39.6987 523.762 39.832C523.474 39.9653 523.263 40.1227 523.13 40.304C523.002 40.4853 522.938 40.688 522.938 40.912C522.938 41.1253 522.973 41.3093 523.042 41.464C523.111 41.6187 523.205 41.7467 523.322 41.848C523.445 41.944 523.586 42.016 523.746 42.064C523.911 42.1067 524.087 42.128 524.274 42.128C524.525 42.128 524.754 42.104 524.962 42.056C525.17 42.0027 525.365 41.928 525.546 41.832C525.733 41.736 525.909 41.6213 526.074 41.488C526.245 41.3547 526.41 41.2027 526.57 41.032V39.352ZM521.97 36.04C522.418 35.608 522.901 35.2853 523.418 35.072C523.935 34.8587 524.509 34.752 525.138 34.752C525.591 34.752 525.994 34.8267 526.346 34.976C526.698 35.1253 526.994 35.3333 527.234 35.6C527.474 35.8667 527.655 36.1893 527.778 36.568C527.901 36.9467 527.962 37.3627 527.962 37.816V43H527.33C527.191 43 527.085 42.9787 527.01 42.936C526.935 42.888 526.877 42.7973 526.834 42.664L526.674 41.896C526.461 42.0933 526.253 42.2693 526.05 42.424C525.847 42.5733 525.634 42.7013 525.41 42.808C525.186 42.9093 524.946 42.9867 524.69 43.04C524.439 43.0987 524.159 43.128 523.85 43.128C523.535 43.128 523.239 43.0853 522.962 43C522.685 42.9093 522.442 42.776 522.234 42.6C522.031 42.424 521.869 42.2027 521.746 41.936C521.629 41.664 521.57 41.344 521.57 40.976C521.57 40.656 521.658 40.3493 521.834 40.056C522.01 39.7573 522.295 39.4933 522.69 39.264C523.085 39.0347 523.599 38.848 524.234 38.704C524.869 38.5547 525.647 38.4693 526.57 38.448V37.816C526.57 37.1867 526.434 36.712 526.162 36.392C525.89 36.0667 525.493 35.904 524.97 35.904C524.618 35.904 524.322 35.9493 524.082 36.04C523.847 36.1253 523.642 36.224 523.466 36.336C523.295 36.4427 523.146 36.5413 523.018 36.632C522.895 36.7173 522.773 36.76 522.65 36.76C522.554 36.76 522.471 36.736 522.402 36.688C522.333 36.6347 522.274 36.5707 522.226 36.496L521.97 36.04ZM531.803 31.216V43H530.379V31.216H531.803ZM535.744 41.048C536.006 41.4 536.291 41.648 536.6 41.792C536.915 41.936 537.259 42.008 537.632 42.008C538.395 42.008 538.979 41.7387 539.384 41.2C539.79 40.6613 539.992 39.8587 539.992 38.792C539.992 37.8 539.811 37.072 539.448 36.608C539.091 36.1387 538.579 35.904 537.912 35.904C537.448 35.904 537.043 36.0107 536.696 36.224C536.355 36.4373 536.038 36.7387 535.744 37.128V41.048ZM535.744 36.064C536.086 35.6693 536.47 35.3547 536.896 35.12C537.328 34.8853 537.824 34.768 538.384 34.768C538.859 34.768 539.286 34.8587 539.664 35.04C540.048 35.2213 540.374 35.4853 540.64 35.832C540.907 36.1733 541.11 36.5893 541.248 37.08C541.392 37.5707 541.464 38.1227 541.464 38.736C541.464 39.392 541.384 39.9893 541.224 40.528C541.064 41.0667 540.832 41.528 540.528 41.912C540.23 42.2907 539.864 42.5867 539.432 42.8C539 43.008 538.515 43.112 537.976 43.112C537.443 43.112 536.992 43.0133 536.624 42.816C536.262 42.6133 535.944 42.328 535.672 41.96L535.6 42.696C535.558 42.8987 535.435 43 535.232 43H534.312V31.216H535.744V36.064ZM550.13 34.896V43H549.282C549.079 43 548.951 42.9013 548.898 42.704L548.786 41.832C548.434 42.2213 548.039 42.536 547.602 42.776C547.164 43.0107 546.663 43.128 546.098 43.128C545.655 43.128 545.263 43.056 544.922 42.912C544.586 42.7627 544.303 42.5547 544.074 42.288C543.844 42.0213 543.671 41.6987 543.554 41.32C543.442 40.9413 543.386 40.5227 543.386 40.064V34.896H544.81V40.064C544.81 40.6773 544.948 41.152 545.226 41.488C545.508 41.824 545.938 41.992 546.514 41.992C546.935 41.992 547.327 41.8933 547.69 41.696C548.058 41.4933 548.396 41.216 548.706 40.864V34.896H550.13ZM552.587 43V34.896H553.443C553.646 34.896 553.771 34.9947 553.819 35.192L553.923 36.024C554.222 35.656 554.558 35.3547 554.931 35.12C555.305 34.8853 555.737 34.768 556.227 34.768C556.771 34.768 557.211 34.92 557.547 35.224C557.889 35.528 558.134 35.9387 558.283 36.456C558.401 36.1627 558.55 35.9093 558.731 35.696C558.918 35.4827 559.126 35.3067 559.355 35.168C559.585 35.0293 559.827 34.928 560.083 34.864C560.345 34.8 560.609 34.768 560.875 34.768C561.302 34.768 561.681 34.8373 562.011 34.976C562.347 35.1093 562.63 35.3067 562.859 35.568C563.094 35.8293 563.273 36.152 563.395 36.536C563.518 36.9147 563.579 37.3493 563.579 37.84V43H562.147V37.84C562.147 37.2053 562.009 36.7253 561.731 36.4C561.454 36.0693 561.054 35.904 560.531 35.904C560.297 35.904 560.073 35.9467 559.859 36.032C559.651 36.112 559.467 36.232 559.307 36.392C559.147 36.552 559.019 36.7547 558.923 37C558.833 37.24 558.787 37.52 558.787 37.84V43H557.355V37.84C557.355 37.1893 557.225 36.704 556.963 36.384C556.702 36.064 556.321 35.904 555.819 35.904C555.467 35.904 555.142 36 554.843 36.192C554.545 36.3787 554.27 36.6347 554.019 36.96V43H552.587ZM573.653 34.768C574.245 34.768 574.779 34.8667 575.253 35.064C575.728 35.2613 576.133 35.5413 576.469 35.904C576.805 36.2667 577.061 36.7067 577.237 37.224C577.419 37.736 577.509 38.3093 577.509 38.944C577.509 39.584 577.419 40.16 577.237 40.672C577.061 41.184 576.805 41.6213 576.469 41.984C576.133 42.3467 575.728 42.6267 575.253 42.824C574.779 43.016 574.245 43.112 573.653 43.112C573.056 43.112 572.517 43.016 572.037 42.824C571.563 42.6267 571.157 42.3467 570.821 41.984C570.485 41.6213 570.227 41.184 570.045 40.672C569.869 40.16 569.781 39.584 569.781 38.944C569.781 38.3093 569.869 37.736 570.045 37.224C570.227 36.7067 570.485 36.2667 570.821 35.904C571.157 35.5413 571.563 35.2613 572.037 35.064C572.517 34.8667 573.056 34.768 573.653 34.768ZM573.653 42C574.453 42 575.051 41.7333 575.445 41.2C575.84 40.6613 576.037 39.912 576.037 38.952C576.037 37.9867 575.84 37.2347 575.445 36.696C575.051 36.1573 574.453 35.888 573.653 35.888C573.248 35.888 572.893 35.9573 572.589 36.096C572.291 36.2347 572.04 36.4347 571.837 36.696C571.64 36.9573 571.491 37.28 571.389 37.664C571.293 38.0427 571.245 38.472 571.245 38.952C571.245 39.912 571.443 40.6613 571.837 41.2C572.237 41.7333 572.843 42 573.653 42ZM579.872 43V36.112L578.976 36.008C578.864 35.9813 578.77 35.9413 578.696 35.888C578.626 35.8293 578.592 35.7467 578.592 35.64V35.056H579.872V34.272C579.872 33.808 579.936 33.3973 580.064 33.04C580.197 32.6773 580.384 32.3733 580.624 32.128C580.869 31.8773 581.162 31.688 581.504 31.56C581.845 31.432 582.229 31.368 582.656 31.368C583.018 31.368 583.352 31.4213 583.656 31.528L583.624 32.24C583.613 32.368 583.541 32.4373 583.408 32.448C583.28 32.4587 583.106 32.464 582.888 32.464C582.642 32.464 582.418 32.496 582.216 32.56C582.018 32.624 581.848 32.728 581.704 32.872C581.56 33.016 581.448 33.2053 581.368 33.44C581.293 33.6747 581.256 33.9653 581.256 34.312V35.056H583.592V36.088H581.304V43H579.872ZM595.736 34.896L591.216 45.392C591.168 45.4987 591.106 45.584 591.032 45.648C590.962 45.712 590.853 45.744 590.704 45.744H589.648L591.128 42.528L587.784 34.896H589.016C589.138 34.896 589.234 34.928 589.304 34.992C589.378 35.0507 589.429 35.1173 589.456 35.192L591.624 40.296C591.709 40.52 591.781 40.7547 591.84 41C591.914 40.7493 591.994 40.512 592.08 40.288L594.184 35.192C594.216 35.1067 594.269 35.0373 594.344 34.984C594.424 34.9253 594.512 34.896 594.608 34.896H595.736ZM600.391 34.768C600.983 34.768 601.516 34.8667 601.991 35.064C602.466 35.2613 602.871 35.5413 603.207 35.904C603.543 36.2667 603.799 36.7067 603.975 37.224C604.156 37.736 604.247 38.3093 604.247 38.944C604.247 39.584 604.156 40.16 603.975 40.672C603.799 41.184 603.543 41.6213 603.207 41.984C602.871 42.3467 602.466 42.6267 601.991 42.824C601.516 43.016 600.983 43.112 600.391 43.112C599.794 43.112 599.255 43.016 598.775 42.824C598.3 42.6267 597.895 42.3467 597.559 41.984C597.223 41.6213 596.964 41.184 596.783 40.672C596.607 40.16 596.519 39.584 596.519 38.944C596.519 38.3093 596.607 37.736 596.783 37.224C596.964 36.7067 597.223 36.2667 597.559 35.904C597.895 35.5413 598.3 35.2613 598.775 35.064C599.255 34.8667 599.794 34.768 600.391 34.768ZM600.391 42C601.191 42 601.788 41.7333 602.183 41.2C602.578 40.6613 602.775 39.912 602.775 38.952C602.775 37.9867 602.578 37.2347 602.183 36.696C601.788 36.1573 601.191 35.888 600.391 35.888C599.986 35.888 599.631 35.9573 599.327 36.096C599.028 36.2347 598.778 36.4347 598.575 36.696C598.378 36.9573 598.228 37.28 598.127 37.664C598.031 38.0427 597.983 38.472 597.983 38.952C597.983 39.912 598.18 40.6613 598.575 41.2C598.975 41.7333 599.58 42 600.391 42ZM612.917 34.896V43H612.069C611.866 43 611.738 42.9013 611.685 42.704L611.573 41.832C611.221 42.2213 610.826 42.536 610.389 42.776C609.952 43.0107 609.45 43.128 608.885 43.128C608.442 43.128 608.05 43.056 607.709 42.912C607.373 42.7627 607.09 42.5547 606.861 42.288C606.632 42.0213 606.458 41.6987 606.341 41.32C606.229 40.9413 606.173 40.5227 606.173 40.064V34.896H607.597V40.064C607.597 40.6773 607.736 41.152 608.013 41.488C608.296 41.824 608.725 41.992 609.301 41.992C609.722 41.992 610.114 41.8933 610.477 41.696C610.845 41.4933 611.184 41.216 611.493 40.864V34.896H612.917ZM616.727 36.52C616.983 35.9653 617.298 35.5333 617.671 35.224C618.044 34.9093 618.5 34.752 619.039 34.752C619.21 34.752 619.372 34.7707 619.527 34.808C619.687 34.8453 619.828 34.904 619.951 34.984L619.847 36.048C619.815 36.1813 619.735 36.248 619.607 36.248C619.532 36.248 619.423 36.232 619.279 36.2C619.135 36.168 618.972 36.152 618.791 36.152C618.535 36.152 618.306 36.1893 618.103 36.264C617.906 36.3387 617.727 36.4507 617.567 36.6C617.412 36.744 617.271 36.9253 617.143 37.144C617.02 37.3573 616.908 37.6027 616.807 37.88V43H615.375V34.896H616.191C616.346 34.896 616.452 34.9253 616.511 34.984C616.57 35.0427 616.61 35.144 616.631 35.288L616.727 36.52ZM630.993 36.336C630.95 36.3947 630.908 36.44 630.865 36.472C630.822 36.504 630.764 36.52 630.689 36.52C630.609 36.52 630.521 36.488 630.425 36.424C630.329 36.3547 630.209 36.28 630.065 36.2C629.926 36.12 629.753 36.048 629.545 35.984C629.342 35.9147 629.092 35.88 628.793 35.88C628.393 35.88 628.041 35.952 627.737 36.096C627.433 36.2347 627.177 36.4373 626.969 36.704C626.766 36.9707 626.612 37.2933 626.505 37.672C626.404 38.0507 626.353 38.4747 626.353 38.944C626.353 39.4347 626.409 39.872 626.521 40.256C626.633 40.6347 626.79 40.9547 626.993 41.216C627.201 41.472 627.449 41.6693 627.737 41.808C628.03 41.9413 628.358 42.008 628.721 42.008C629.068 42.008 629.353 41.968 629.577 41.888C629.801 41.8027 629.985 41.7093 630.129 41.608C630.278 41.5067 630.401 41.416 630.497 41.336C630.598 41.2507 630.697 41.208 630.793 41.208C630.91 41.208 631.001 41.2533 631.065 41.344L631.465 41.864C631.289 42.0827 631.089 42.2693 630.865 42.424C630.641 42.5787 630.398 42.7093 630.137 42.816C629.881 42.9173 629.612 42.992 629.329 43.04C629.046 43.088 628.758 43.112 628.465 43.112C627.958 43.112 627.486 43.0187 627.049 42.832C626.617 42.6453 626.241 42.376 625.921 42.024C625.601 41.6667 625.35 41.2293 625.169 40.712C624.988 40.1947 624.897 39.6053 624.897 38.944C624.897 38.3413 624.98 37.784 625.145 37.272C625.316 36.76 625.561 36.32 625.881 35.952C626.206 35.5787 626.604 35.288 627.073 35.08C627.548 34.872 628.092 34.768 628.705 34.768C629.276 34.768 629.777 34.8613 630.209 35.048C630.646 35.2293 631.033 35.488 631.369 35.824L630.993 36.336ZM634.626 35.976C634.972 35.608 635.356 35.3147 635.778 35.096C636.199 34.8773 636.684 34.768 637.234 34.768C637.676 34.768 638.066 34.8427 638.402 34.992C638.743 35.136 639.026 35.344 639.25 35.616C639.479 35.8827 639.652 36.2053 639.77 36.584C639.887 36.9627 639.946 37.3813 639.946 37.84V43H638.514V37.84C638.514 37.2267 638.372 36.752 638.09 36.416C637.812 36.0747 637.388 35.904 636.818 35.904C636.396 35.904 636.002 36.0053 635.634 36.208C635.271 36.4107 634.935 36.6853 634.626 37.032V43H633.194V31.216H634.626V35.976ZM645.732 34.768C646.324 34.768 646.857 34.8667 647.332 35.064C647.806 35.2613 648.212 35.5413 648.548 35.904C648.884 36.2667 649.14 36.7067 649.316 37.224C649.497 37.736 649.588 38.3093 649.588 38.944C649.588 39.584 649.497 40.16 649.316 40.672C649.14 41.184 648.884 41.6213 648.548 41.984C648.212 42.3467 647.806 42.6267 647.332 42.824C646.857 43.016 646.324 43.112 645.732 43.112C645.134 43.112 644.596 43.016 644.116 42.824C643.641 42.6267 643.236 42.3467 642.9 41.984C642.564 41.6213 642.305 41.184 642.124 40.672C641.948 40.16 641.86 39.584 641.86 38.944C641.86 38.3093 641.948 37.736 642.124 37.224C642.305 36.7067 642.564 36.2667 642.9 35.904C643.236 35.5413 643.641 35.2613 644.116 35.064C644.596 34.8667 645.134 34.768 645.732 34.768ZM645.732 42C646.532 42 647.129 41.7333 647.524 41.2C647.918 40.6613 648.116 39.912 648.116 38.952C648.116 37.9867 647.918 37.2347 647.524 36.696C647.129 36.1573 646.532 35.888 645.732 35.888C645.326 35.888 644.972 35.9573 644.668 36.096C644.369 36.2347 644.118 36.4347 643.916 36.696C643.718 36.9573 643.569 37.28 643.468 37.664C643.372 38.0427 643.324 38.472 643.324 38.952C643.324 39.912 643.521 40.6613 643.916 41.2C644.316 41.7333 644.921 42 645.732 42ZM653.098 34.896V43H651.674V34.896H653.098ZM653.402 32.352C653.402 32.4907 653.372 32.6213 653.314 32.744C653.26 32.8613 653.186 32.968 653.09 33.064C652.999 33.1547 652.89 33.2267 652.762 33.28C652.639 33.3333 652.508 33.36 652.37 33.36C652.231 33.36 652.1 33.3333 651.978 33.28C651.86 33.2267 651.756 33.1547 651.666 33.064C651.575 32.968 651.503 32.8613 651.45 32.744C651.396 32.6213 651.37 32.4907 651.37 32.352C651.37 32.2133 651.396 32.0827 651.45 31.96C651.503 31.832 651.575 31.7227 651.666 31.632C651.756 31.536 651.86 31.4613 651.978 31.408C652.1 31.3547 652.231 31.328 652.37 31.328C652.508 31.328 652.639 31.3547 652.762 31.408C652.89 31.4613 652.999 31.536 653.09 31.632C653.186 31.7227 653.26 31.832 653.314 31.96C653.372 32.0827 653.402 32.2133 653.402 32.352ZM661.277 36.336C661.235 36.3947 661.192 36.44 661.149 36.472C661.107 36.504 661.048 36.52 660.973 36.52C660.893 36.52 660.805 36.488 660.709 36.424C660.613 36.3547 660.493 36.28 660.349 36.2C660.211 36.12 660.037 36.048 659.829 35.984C659.627 35.9147 659.376 35.88 659.077 35.88C658.677 35.88 658.325 35.952 658.021 36.096C657.717 36.2347 657.461 36.4373 657.253 36.704C657.051 36.9707 656.896 37.2933 656.789 37.672C656.688 38.0507 656.637 38.4747 656.637 38.944C656.637 39.4347 656.693 39.872 656.805 40.256C656.917 40.6347 657.075 40.9547 657.277 41.216C657.485 41.472 657.733 41.6693 658.021 41.808C658.315 41.9413 658.643 42.008 659.005 42.008C659.352 42.008 659.637 41.968 659.861 41.888C660.085 41.8027 660.269 41.7093 660.413 41.608C660.563 41.5067 660.685 41.416 660.781 41.336C660.883 41.2507 660.981 41.208 661.077 41.208C661.195 41.208 661.285 41.2533 661.349 41.344L661.749 41.864C661.573 42.0827 661.373 42.2693 661.149 42.424C660.925 42.5787 660.683 42.7093 660.421 42.816C660.165 42.9173 659.896 42.992 659.613 43.04C659.331 43.088 659.043 43.112 658.749 43.112C658.243 43.112 657.771 43.0187 657.333 42.832C656.901 42.6453 656.525 42.376 656.205 42.024C655.885 41.6667 655.635 41.2293 655.453 40.712C655.272 40.1947 655.181 39.6053 655.181 38.944C655.181 38.3413 655.264 37.784 655.429 37.272C655.6 36.76 655.845 36.32 656.165 35.952C656.491 35.5787 656.888 35.288 657.357 35.08C657.832 34.872 658.376 34.768 658.989 34.768C659.56 34.768 660.061 34.8613 660.493 35.048C660.931 35.2293 661.317 35.488 661.653 35.824L661.277 36.336ZM668.761 38.064C668.761 37.7333 668.713 37.432 668.617 37.16C668.527 36.8827 668.391 36.6453 668.209 36.448C668.033 36.2453 667.817 36.0907 667.561 35.984C667.305 35.872 667.015 35.816 666.689 35.816C666.007 35.816 665.465 36.016 665.065 36.416C664.671 36.8107 664.425 37.36 664.329 38.064H668.761ZM669.913 41.864C669.737 42.0773 669.527 42.264 669.281 42.424C669.036 42.5787 668.772 42.7067 668.489 42.808C668.212 42.9093 667.924 42.984 667.625 43.032C667.327 43.0853 667.031 43.112 666.737 43.112C666.177 43.112 665.66 43.0187 665.185 42.832C664.716 42.64 664.308 42.3627 663.961 42C663.62 41.632 663.353 41.1787 663.161 40.64C662.969 40.1013 662.873 39.4827 662.873 38.784C662.873 38.2187 662.959 37.6907 663.129 37.2C663.305 36.7093 663.556 36.2853 663.881 35.928C664.207 35.5653 664.604 35.2827 665.073 35.08C665.543 34.872 666.071 34.768 666.657 34.768C667.143 34.768 667.591 34.8507 668.001 35.016C668.417 35.176 668.775 35.4107 669.073 35.72C669.377 36.024 669.615 36.4027 669.785 36.856C669.956 37.304 670.041 37.816 670.041 38.392C670.041 38.616 670.017 38.7653 669.969 38.84C669.921 38.9147 669.831 38.952 669.697 38.952H664.281C664.297 39.464 664.367 39.9093 664.489 40.288C664.617 40.6667 664.793 40.984 665.017 41.24C665.241 41.4907 665.508 41.68 665.817 41.808C666.127 41.9307 666.473 41.992 666.857 41.992C667.215 41.992 667.521 41.952 667.777 41.872C668.039 41.7867 668.263 41.696 668.449 41.6C668.636 41.504 668.791 41.416 668.913 41.336C669.041 41.2507 669.151 41.208 669.241 41.208C669.359 41.208 669.449 41.2533 669.513 41.344L669.913 41.864Z" fill="#121212"/>
<path fill-rule="evenodd" clip-rule="evenodd" d="M975.326 39.8987L980.706 45.2787C980.895 45.468 981.001 45.7246 981.001 45.9921C981.001 46.2596 980.894 46.5161 980.705 46.7052C980.516 46.8943 980.259 47.0005 979.992 47.0004C979.724 47.0003 979.468 46.894 979.279 46.7047L973.899 41.3247C972.29 42.5704 970.268 43.1566 968.243 42.9641C966.218 42.7716 964.342 41.8148 962.997 40.2884C961.652 38.7619 960.94 36.7806 961.004 34.7473C961.068 32.714 961.905 30.7816 963.343 29.3431C964.782 27.9047 966.714 27.0683 968.747 27.004C970.781 26.9397 972.762 27.6525 974.288 28.9972C975.815 30.342 976.772 32.2177 976.964 34.2429C977.157 36.268 976.57 38.2905 975.325 39.8987H975.326ZM969.001 40.9997C970.592 40.9997 972.118 40.3676 973.243 39.2424C974.369 38.1172 975.001 36.591 975.001 34.9997C975.001 33.4084 974.369 31.8823 973.243 30.7571C972.118 29.6319 970.592 28.9997 969.001 28.9997C967.409 28.9997 965.883 29.6319 964.758 30.7571C963.633 31.8823 963.001 33.4084 963.001 34.9997C963.001 36.591 963.633 38.1172 964.758 39.2424C965.883 40.3676 967.409 40.9997 969.001 40.9997Z" fill="#121212"/>
<rect x="1238.5" y="13.5" width="169" height="46" rx="11.5" fill="#121212"/>
<rect x="1238.5" y="13.5" width="169" height="46" rx="11.5" stroke="#34C94B"/>
<path d="M1264.14 34.216C1263.85 33.688 1263.46 33.286 1262.95 33.01C1262.45 32.734 1261.86 32.596 1261.19 32.596C1260.44 32.596 1259.78 32.764 1259.21 33.1C1258.63 33.436 1258.18 33.916 1257.86 34.54C1257.53 35.164 1257.37 35.884 1257.37 36.7C1257.37 37.54 1257.53 38.272 1257.86 38.896C1258.19 39.52 1258.66 40 1259.24 40.336C1259.83 40.672 1260.52 40.84 1261.3 40.84C1262.26 40.84 1263.04 40.588 1263.65 40.084C1264.27 39.568 1264.67 38.854 1264.86 37.942H1260.54V36.016H1267.34V38.212C1267.18 39.088 1266.82 39.898 1266.26 40.642C1265.71 41.386 1265 41.986 1264.12 42.442C1263.26 42.886 1262.29 43.108 1261.21 43.108C1259.99 43.108 1258.9 42.838 1257.91 42.298C1256.94 41.746 1256.17 40.984 1255.61 40.012C1255.06 39.04 1254.78 37.936 1254.78 36.7C1254.78 35.464 1255.06 34.36 1255.61 33.388C1256.17 32.404 1256.94 31.642 1257.91 31.102C1258.9 30.55 1259.99 30.274 1261.19 30.274C1262.6 30.274 1263.83 30.622 1264.88 31.318C1265.92 32.002 1266.64 32.968 1267.04 34.216H1264.14ZM1270.74 31.84C1270.29 31.84 1269.92 31.702 1269.62 31.426C1269.33 31.138 1269.19 30.784 1269.19 30.364C1269.19 29.944 1269.33 29.596 1269.62 29.32C1269.92 29.032 1270.29 28.888 1270.74 28.888C1271.18 28.888 1271.55 29.032 1271.83 29.32C1272.13 29.596 1272.28 29.944 1272.28 30.364C1272.28 30.784 1272.13 31.138 1271.83 31.426C1271.55 31.702 1271.18 31.84 1270.74 31.84ZM1271.98 33.028V43H1269.46V33.028H1271.98ZM1278.88 40.678L1281.4 33.028H1284.08L1280.39 43H1277.33L1273.66 33.028H1276.36L1278.88 40.678ZM1295.01 37.798C1295.01 38.158 1294.99 38.482 1294.94 38.77H1287.65C1287.71 39.49 1287.96 40.054 1288.41 40.462C1288.85 40.87 1289.4 41.074 1290.04 41.074C1290.98 41.074 1291.65 40.672 1292.04 39.868H1294.76C1294.47 40.828 1293.92 41.62 1293.1 42.244C1292.29 42.856 1291.29 43.162 1290.1 43.162C1289.14 43.162 1288.27 42.952 1287.51 42.532C1286.75 42.1 1286.16 41.494 1285.72 40.714C1285.3 39.934 1285.09 39.034 1285.09 38.014C1285.09 36.982 1285.3 36.076 1285.72 35.296C1286.14 34.516 1286.73 33.916 1287.49 33.496C1288.24 33.076 1289.11 32.866 1290.1 32.866C1291.05 32.866 1291.89 33.07 1292.64 33.478C1293.39 33.886 1293.97 34.468 1294.38 35.224C1294.8 35.968 1295.01 36.826 1295.01 37.798ZM1292.4 37.078C1292.39 36.43 1292.16 35.914 1291.7 35.53C1291.24 35.134 1290.69 34.936 1290.03 34.936C1289.4 34.936 1288.87 35.128 1288.44 35.512C1288.02 35.884 1287.76 36.406 1287.67 37.078H1292.4ZM1309.4 30.436V32.47H1304.16V35.692H1308.18V37.69H1304.16V43H1301.64V30.436H1309.4ZM1320.71 37.798C1320.71 38.158 1320.68 38.482 1320.63 38.77H1313.34C1313.4 39.49 1313.66 40.054 1314.1 40.462C1314.54 40.87 1315.09 41.074 1315.74 41.074C1316.67 41.074 1317.34 40.672 1317.74 39.868H1320.45C1320.17 40.828 1319.61 41.62 1318.8 42.244C1317.98 42.856 1316.98 43.162 1315.79 43.162C1314.83 43.162 1313.97 42.952 1313.2 42.532C1312.44 42.1 1311.85 41.494 1311.42 40.714C1311 39.934 1310.79 39.034 1310.79 38.014C1310.79 36.982 1311 36.076 1311.42 35.296C1311.84 34.516 1312.43 33.916 1313.18 33.496C1313.94 33.076 1314.81 32.866 1315.79 32.866C1316.74 32.866 1317.59 33.07 1318.33 33.478C1319.09 33.886 1319.67 34.468 1320.08 35.224C1320.5 35.968 1320.71 36.826 1320.71 37.798ZM1318.1 37.078C1318.08 36.43 1317.85 35.914 1317.39 35.53C1316.94 35.134 1316.38 34.936 1315.72 34.936C1315.1 34.936 1314.57 35.128 1314.14 35.512C1313.72 35.884 1313.46 36.406 1313.36 37.078H1318.1ZM1332.07 37.798C1332.07 38.158 1332.04 38.482 1331.99 38.77H1324.7C1324.76 39.49 1325.02 40.054 1325.46 40.462C1325.9 40.87 1326.45 41.074 1327.1 41.074C1328.03 41.074 1328.7 40.672 1329.1 39.868H1331.81C1331.53 40.828 1330.97 41.62 1330.16 42.244C1329.34 42.856 1328.34 43.162 1327.15 43.162C1326.19 43.162 1325.33 42.952 1324.56 42.532C1323.8 42.1 1323.21 41.494 1322.78 40.714C1322.36 39.934 1322.15 39.034 1322.15 38.014C1322.15 36.982 1322.36 36.076 1322.78 35.296C1323.2 34.516 1323.79 33.916 1324.54 33.496C1325.3 33.076 1326.17 32.866 1327.15 32.866C1328.1 32.866 1328.95 33.07 1329.69 33.478C1330.45 33.886 1331.03 34.468 1331.44 35.224C1331.86 35.968 1332.07 36.826 1332.07 37.798ZM1329.46 37.078C1329.44 36.43 1329.21 35.914 1328.75 35.53C1328.3 35.134 1327.74 34.936 1327.08 34.936C1326.46 34.936 1325.93 35.128 1325.5 35.512C1325.08 35.884 1324.82 36.406 1324.72 37.078H1329.46ZM1333.51 37.978C1333.51 36.97 1333.71 36.076 1334.1 35.296C1334.51 34.516 1335.06 33.916 1335.76 33.496C1336.45 33.076 1337.23 32.866 1338.08 32.866C1338.73 32.866 1339.35 33.01 1339.93 33.298C1340.52 33.574 1340.99 33.946 1341.34 34.414V29.68H1343.89V43H1341.34V41.524C1341.03 42.016 1340.59 42.412 1340.02 42.712C1339.46 43.012 1338.81 43.162 1338.06 43.162C1337.22 43.162 1336.45 42.946 1335.76 42.514C1335.06 42.082 1334.51 41.476 1334.1 40.696C1333.71 39.904 1333.51 38.998 1333.51 37.978ZM1341.36 38.014C1341.36 37.402 1341.24 36.88 1341 36.448C1340.76 36.004 1340.43 35.668 1340.02 35.44C1339.62 35.2 1339.18 35.08 1338.71 35.08C1338.24 35.08 1337.81 35.194 1337.41 35.422C1337.02 35.65 1336.69 35.986 1336.44 36.43C1336.2 36.862 1336.08 37.378 1336.08 37.978C1336.08 38.578 1336.2 39.106 1336.44 39.562C1336.69 40.006 1337.02 40.348 1337.41 40.588C1337.82 40.828 1338.25 40.948 1338.71 40.948C1339.18 40.948 1339.62 40.834 1340.02 40.606C1340.43 40.366 1340.76 40.03 1341 39.598C1341.24 39.154 1341.36 38.626 1341.36 38.014ZM1349.12 34.486C1349.45 34.006 1349.89 33.616 1350.46 33.316C1351.03 33.016 1351.69 32.866 1352.42 32.866C1353.27 32.866 1354.04 33.076 1354.72 33.496C1355.42 33.916 1355.96 34.516 1356.36 35.296C1356.77 36.064 1356.97 36.958 1356.97 37.978C1356.97 38.998 1356.77 39.904 1356.36 40.696C1355.96 41.476 1355.42 42.082 1354.72 42.514C1354.04 42.946 1353.27 43.162 1352.42 43.162C1351.67 43.162 1351.02 43.018 1350.46 42.73C1349.9 42.43 1349.46 42.046 1349.12 41.578V43H1346.6V29.68H1349.12V34.486ZM1354.4 37.978C1354.4 37.378 1354.27 36.862 1354.02 36.43C1353.78 35.986 1353.46 35.65 1353.05 35.422C1352.65 35.194 1352.22 35.08 1351.75 35.08C1351.3 35.08 1350.86 35.2 1350.46 35.44C1350.06 35.668 1349.74 36.004 1349.48 36.448C1349.24 36.892 1349.12 37.414 1349.12 38.014C1349.12 38.614 1349.24 39.136 1349.48 39.58C1349.74 40.024 1350.06 40.366 1350.46 40.606C1350.86 40.834 1351.3 40.948 1351.75 40.948C1352.22 40.948 1352.65 40.828 1353.05 40.588C1353.46 40.348 1353.78 40.006 1354.02 39.562C1354.27 39.118 1354.4 38.59 1354.4 37.978ZM1358.41 37.978C1358.41 36.97 1358.6 36.076 1359 35.296C1359.41 34.516 1359.95 33.916 1360.64 33.496C1361.33 33.076 1362.11 32.866 1362.96 32.866C1363.7 32.866 1364.35 33.016 1364.9 33.316C1365.47 33.616 1365.92 33.994 1366.25 34.45V33.028H1368.79V43H1366.25V41.542C1365.93 42.01 1365.48 42.4 1364.9 42.712C1364.34 43.012 1363.69 43.162 1362.94 43.162C1362.1 43.162 1361.33 42.946 1360.64 42.514C1359.95 42.082 1359.41 41.476 1359 40.696C1358.6 39.904 1358.41 38.998 1358.41 37.978ZM1366.25 38.014C1366.25 37.402 1366.13 36.88 1365.89 36.448C1365.65 36.004 1365.33 35.668 1364.92 35.44C1364.51 35.2 1364.08 35.08 1363.61 35.08C1363.14 35.08 1362.71 35.194 1362.31 35.422C1361.92 35.65 1361.59 35.986 1361.34 36.43C1361.1 36.862 1360.98 37.378 1360.98 37.978C1360.98 38.578 1361.1 39.106 1361.34 39.562C1361.59 40.006 1361.92 40.348 1362.31 40.588C1362.72 40.828 1363.15 40.948 1363.61 40.948C1364.08 40.948 1364.51 40.834 1364.92 40.606C1365.33 40.366 1365.65 40.03 1365.89 39.598C1366.13 39.154 1366.25 38.626 1366.25 38.014ZM1370.85 38.014C1370.85 36.982 1371.06 36.082 1371.48 35.314C1371.9 34.534 1372.49 33.934 1373.23 33.514C1373.97 33.082 1374.83 32.866 1375.79 32.866C1377.02 32.866 1378.04 33.178 1378.85 33.802C1379.66 34.414 1380.21 35.278 1380.48 36.394H1377.77C1377.62 35.962 1377.38 35.626 1377.03 35.386C1376.69 35.134 1376.27 35.008 1375.77 35.008C1375.05 35.008 1374.48 35.272 1374.06 35.8C1373.64 36.316 1373.43 37.054 1373.43 38.014C1373.43 38.962 1373.64 39.7 1374.06 40.228C1374.48 40.744 1375.05 41.002 1375.77 41.002C1376.79 41.002 1377.45 40.546 1377.77 39.634H1380.48C1380.21 40.714 1379.66 41.572 1378.85 42.208C1378.03 42.844 1377.01 43.162 1375.79 43.162C1374.83 43.162 1373.97 42.952 1373.23 42.532C1372.49 42.1 1371.9 41.5 1371.48 40.732C1371.06 39.952 1370.85 39.046 1370.85 38.014ZM1388.48 43L1385.1 38.752V43H1382.58V29.68H1385.1V37.258L1388.45 33.028H1391.72L1387.33 38.032L1391.76 43H1388.48Z" fill="#34C94B"/>
</svg>
